<svg width="80" height="62" viewBox="0 0 80 62" fill="none" xmlns="http://www.w3.org/2000/svg">
<g filter="url(#filter0_d_11_20)">
<g filter="url(#filter1_d_11_20)">
<path d="M19.8742 19.7726L9 30.5388V34.8649V39.1849H19.8618H30.7237V44.5924V50H36.1546H41.5855V40.2541V30.5083H30.7422H19.8927L26.5888 23.8603C30.2732 20.2064 35.1425 15.3671 37.4198 13.1063L41.5547 9.00021H36.1546H30.7545L19.8742 19.7726Z" fill="#DBFFD2"/>
</g>
<g filter="url(#filter2_d_11_20)">
<path d="M46.2763 14.3587V19.7235L51.6764 14.377C54.6449 11.438 57.0764 9.02443 57.0764 9.01832C57.0764 9.0061 54.6449 8.99999 51.6764 8.99999H46.2763V14.3587Z" fill="#DBFFD2"/>
</g>
<g filter="url(#filter3_d_11_20)">
<path d="M57.1381 14.3649V19.7236L51.7072 25.1006L46.2763 30.4777V35.8669V41.2623H57.1381H68V35.9158C68 32.9768 67.9815 30.5693 67.9568 30.5693C67.9259 30.5693 65.482 32.9706 62.5259 35.8975L57.1381 41.2317V35.8547V30.4777L62.5691 25.1006L68 19.7236V14.3649V9.00012H62.5691H57.1381V14.3649Z" fill="#DBFFD2"/>
</g>
</g>
<defs>
<filter id="filter0_d_11_20" x="5" y="8.99998" width="67" height="49" filterUnits="userSpaceOnUse" color-interpolation-filters="sRGB">
<feFlood flood-opacity="0" result="BackgroundImageFix"/>
<feColorMatrix in="SourceAlpha" type="matrix" values="0 0 0 0 0 0 0 0 0 0 0 0 0 0 0 0 0 0 127 0" result="hardAlpha"/>
<feOffset dy="4"/>
<feGaussianBlur stdDeviation="2"/>
<feComposite in2="hardAlpha" operator="out"/>
<feColorMatrix type="matrix" values="0 0 0 0 0 0 0 0 0 0 0 0 0 0 0 0 0 0 0.25 0"/>
<feBlend mode="normal" in2="BackgroundImageFix" result="effect1_dropShadow_11_20"/>
<feBlend mode="normal" in="SourceGraphic" in2="effect1_dropShadow_11_20" result="shape"/>
</filter>
<filter id="filter1_d_11_20" x="0.6" y="0.600214" width="52.5855" height="60.9998" filterUnits="userSpaceOnUse" color-interpolation-filters="sRGB">
<feFlood flood-opacity="0" result="BackgroundImageFix"/>
<feColorMatrix in="SourceAlpha" type="matrix" values="0 0 0 0 0 0 0 0 0 0 0 0 0 0 0 0 0 0 127 0" result="hardAlpha"/>
<feOffset dx="1.6" dy="1.6"/>
<feGaussianBlur stdDeviation="5"/>
<feComposite in2="hardAlpha" operator="out"/>
<feColorMatrix type="matrix" values="0 0 0 0 0.320001 0 0 0 0 1 0 0 0 0 0 0 0 0 1 0"/>
<feBlend mode="normal" in2="BackgroundImageFix" result="effect1_dropShadow_11_20"/>
<feBlend mode="normal" in="SourceGraphic" in2="effect1_dropShadow_11_20" result="shape"/>
</filter>
<filter id="filter2_d_11_20" x="37.8763" y="0.599985" width="30.8001" height="30.7235" filterUnits="userSpaceOnUse" color-interpolation-filters="sRGB">
<feFlood flood-opacity="0" result="BackgroundImageFix"/>
<feColorMatrix in="SourceAlpha" type="matrix" values="0 0 0 0 0 0 0 0 0 0 0 0 0 0 0 0 0 0 127 0" result="hardAlpha"/>
<feOffset dx="1.6" dy="1.6"/>
<feGaussianBlur stdDeviation="5"/>
<feComposite in2="hardAlpha" operator="out"/>
<feColorMatrix type="matrix" values="0 0 0 0 0.320001 0 0 0 0 1 0 0 0 0 0 0 0 0 1 0"/>
<feBlend mode="normal" in2="BackgroundImageFix" result="effect1_dropShadow_11_20"/>
<feBlend mode="normal" in="SourceGraphic" in2="effect1_dropShadow_11_20" result="shape"/>
</filter>
<filter id="filter3_d_11_20" x="37.8763" y="0.600122" width="41.7237" height="52.2621" filterUnits="userSpaceOnUse" color-interpolation-filters="sRGB">
<feFlood flood-opacity="0" result="BackgroundImageFix"/>
<feColorMatrix in="SourceAlpha" type="matrix" values="0 0 0 0 0 0 0 0 0 0 0 0 0 0 0 0 0 0 127 0" result="hardAlpha"/>
<feOffset dx="1.6" dy="1.6"/>
<feGaussianBlur stdDeviation="5"/>
<feComposite in2="hardAlpha" operator="out"/>
<feColorMatrix type="matrix" values="0 0 0 0 0.320001 0 0 0 0 1 0 0 0 0 0 0 0 0 1 0"/>
<feBlend mode="normal" in2="BackgroundImageFix" result="effect1_dropShadow_11_20"/>
<feBlend mode="normal" in="SourceGraphic" in2="effect1_dropShadow_11_20" result="shape"/>
</filter>
</defs>
</svg>
