<svg width="110" height="36" viewBox="0 0 110 36" fill="none" xmlns="http://www.w3.org/2000/svg">
<g filter="url(#filter0_d_75_35)">
<path d="M13.1445 6.53125H22.2383L22.332 6.625V9.57812H13.0508V6.625L13.1445 6.53125ZM10.0977 9.57812H13.0508V12.6719H22.332V9.57812H25.3789L25.4727 9.67188V21.9062L25.3789 22H22.4258L22.332 21.9062V15.7656H13.0508V21.9062L12.957 22H10.0977L10.0039 21.9062V9.67188L10.0977 9.57812ZM28.4961 6.53125H40.6367L40.7305 6.625V9.57812H31.4492V12.6719H40.7305V15.7656H31.4492V18.8594H40.7305V21.9062L40.6367 22H28.4961L28.4023 21.9062V6.625L28.4961 6.53125ZM40.7305 9.57812H43.7773L43.8711 9.67188V12.5781L43.7773 12.6719H40.7305V9.57812ZM40.7305 15.7656H43.7773L43.8711 15.8594V18.7656L43.7773 18.8594H40.7305V15.7656ZM49.9414 6.53125H59.0352L59.1289 6.625V9.57812H49.8477V6.625L49.9414 6.53125ZM46.8945 9.57812H49.8477V18.8594H46.8945L46.8008 18.7656V9.67188L46.8945 9.57812ZM59.1289 9.57812H62.1758L62.2695 9.67188V18.7656L62.1758 18.8594H59.1289V9.57812ZM49.8477 18.8594H59.1289V21.9062L59.0352 22H49.9414L49.8477 21.9062V18.8594ZM65.293 6.53125H68.1523L68.2461 6.625V18.8594H65.293L65.1992 18.7656V6.625L65.293 6.53125ZM77.6211 6.53125H80.5742L80.668 6.625V18.7656L80.5742 18.8594H77.5273V6.625L77.6211 6.53125ZM68.2461 18.8594H77.5273V21.9062L77.4336 22H68.3398L68.2461 21.9062V18.8594ZM83.6914 6.53125H98.9727L99.0664 6.625V9.48438L98.9727 9.57812H92.832V21.9062L92.7383 22H89.832L89.7383 21.9062V9.57812H83.6914L83.5977 9.48438V6.625L83.6914 6.53125Z" fill="#DBFFD2"/>
</g>
<defs>
<filter id="filter0_d_75_35" x="0.00390625" y="0.53125" width="109.062" height="35.4688" filterUnits="userSpaceOnUse" color-interpolation-filters="sRGB">
<feFlood flood-opacity="0" result="BackgroundImageFix"/>
<feColorMatrix in="SourceAlpha" type="matrix" values="0 0 0 0 0 0 0 0 0 0 0 0 0 0 0 0 0 0 127 0" result="hardAlpha"/>
<feOffset dy="4"/>
<feGaussianBlur stdDeviation="5"/>
<feComposite in2="hardAlpha" operator="out"/>
<feColorMatrix type="matrix" values="0 0 0 0 0.321569 0 0 0 0 1 0 0 0 0 0 0 0 0 1 0"/>
<feBlend mode="normal" in2="BackgroundImageFix" result="effect1_dropShadow_75_35"/>
<feBlend mode="normal" in="SourceGraphic" in2="effect1_dropShadow_75_35" result="shape"/>
</filter>
</defs>
</svg>
