<svg width="135" height="36" viewBox="0 0 135 36" fill="none" xmlns="http://www.w3.org/2000/svg">
<g filter="url(#filter0_d_75_36)">
<path d="M10.5586 6.53125H13.418L13.5117 6.625V18.8594H25.8398L25.9336 18.9531V21.9062L25.8398 22H10.5586L10.4648 21.9062V6.625L10.5586 6.53125ZM32.0039 6.53125H41.0977L41.1914 6.625V9.57812H31.9102V6.625L32.0039 6.53125ZM28.957 9.57812H31.9102V18.8594H28.957L28.8633 18.7656V9.67188L28.957 9.57812ZM41.1914 9.57812H44.2383L44.332 9.67188V18.7656L44.2383 18.8594H41.1914V9.57812ZM31.9102 18.8594H41.1914V21.9062L41.0977 22H32.0039L31.9102 21.9062V18.8594ZM50.4023 6.53125H62.6367L62.7305 6.625V9.48438L62.6367 9.57812H50.3086V6.625L50.4023 6.53125ZM47.3555 9.57812H50.3086V18.8594H47.3555L47.2617 18.7656V9.67188L47.3555 9.57812ZM56.5898 12.6719H62.6367L62.7305 12.7656V18.7656L62.6367 18.8594H59.5898V15.7656H56.5898L56.4961 15.6719V12.7656L56.5898 12.6719ZM50.3086 18.8594H59.5898V21.9062L59.4961 22H50.4023L50.3086 21.9062V18.8594ZM75.4805 6.53125H84.5742L84.668 6.625V9.57812H75.3867V6.625L75.4805 6.53125ZM72.4336 9.57812H75.3867V18.8594H72.4336L72.3398 18.7656V9.67188L72.4336 9.57812ZM84.668 9.57812H87.7148L87.8086 9.67188V18.7656L87.7148 18.8594H84.668V9.57812ZM75.3867 18.8594H84.668V21.9062L84.5742 22H75.4805L75.3867 21.9062V18.8594ZM90.832 6.53125H93.6914L93.7852 6.625V18.8594H90.832L90.7383 18.7656V6.625L90.832 6.53125ZM103.16 6.53125H106.113L106.207 6.625V18.7656L106.113 18.8594H103.066V6.625L103.16 6.53125ZM93.7852 18.8594H103.066V21.9062L102.973 22H93.8789L93.7852 21.9062V18.8594ZM109.23 6.53125H124.512L124.605 6.625V9.48438L124.512 9.57812H118.371V21.9062L118.277 22H115.371L115.277 21.9062V9.57812H109.23L109.137 9.48438V6.625L109.23 6.53125Z" fill="#DBFFD2"/>
</g>
<defs>
<filter id="filter0_d_75_36" x="0.464844" y="0.53125" width="134.141" height="35.4688" filterUnits="userSpaceOnUse" color-interpolation-filters="sRGB">
<feFlood flood-opacity="0" result="BackgroundImageFix"/>
<feColorMatrix in="SourceAlpha" type="matrix" values="0 0 0 0 0 0 0 0 0 0 0 0 0 0 0 0 0 0 127 0" result="hardAlpha"/>
<feOffset dy="4"/>
<feGaussianBlur stdDeviation="5"/>
<feComposite in2="hardAlpha" operator="out"/>
<feColorMatrix type="matrix" values="0 0 0 0 0.321569 0 0 0 0 1 0 0 0 0 0 0 0 0 1 0"/>
<feBlend mode="normal" in2="BackgroundImageFix" result="effect1_dropShadow_75_36"/>
<feBlend mode="normal" in="SourceGraphic" in2="effect1_dropShadow_75_36" result="shape"/>
</filter>
</defs>
</svg>
