<svg width="303" height="82" viewBox="0 0 303 82" fill="none" xmlns="http://www.w3.org/2000/svg">
<g filter="url(#filter0_d_7_4855)">
<path d="M10.6875 6.125H71.8125L72.1875 6.5V42.6875L71.8125 43.0625H22.5V67.625L22.125 68H10.6875L10.3125 67.625V6.5L10.6875 6.125ZM22.5 18.3125V30.6875H59.625V18.3125H22.5ZM84.2812 6.125H145.406L145.781 6.5V67.625L145.406 68H84.2812L83.9062 67.625V6.5L84.2812 6.125ZM96.0938 18.3125V55.4375H133.219V18.3125H96.0938ZM157.875 6.125H169.312L169.688 6.5V18.3125H181.688L182.062 18.6875V30.6875H169.688V67.625L169.312 68H157.875L157.5 67.625V6.5L157.875 6.125ZM207.188 6.125H219L219.375 6.5V67.625L219 68H207.188L206.812 67.625V55.4375H194.812L194.438 55.0625V43.0625H206.812V6.5L207.188 6.125ZM182.062 30.6875H194.062L194.438 31.0625V43.0625H182.438L182.062 42.6875V30.6875ZM231.469 6.125H292.594L292.969 6.5V17.9375L292.594 18.3125H243.281V55.4375H280.406V43.0625H256.031L255.656 42.6875V31.0625L256.031 30.6875H292.594L292.969 31.0625V67.625L292.594 68H231.469L231.094 67.625V6.5L231.469 6.125Z" fill="#DBFFD2"/>
</g>
<defs>
<filter id="filter0_d_7_4855" x="0.3125" y="0.125" width="302.656" height="81.875" filterUnits="userSpaceOnUse" color-interpolation-filters="sRGB">
<feFlood flood-opacity="0" result="BackgroundImageFix"/>
<feColorMatrix in="SourceAlpha" type="matrix" values="0 0 0 0 0 0 0 0 0 0 0 0 0 0 0 0 0 0 127 0" result="hardAlpha"/>
<feOffset dy="4"/>
<feGaussianBlur stdDeviation="5"/>
<feComposite in2="hardAlpha" operator="out"/>
<feColorMatrix type="matrix" values="0 0 0 0 0.321569 0 0 0 0 1 0 0 0 0 0 0 0 0 1 0"/>
<feBlend mode="normal" in2="BackgroundImageFix" result="effect1_dropShadow_7_4855"/>
<feBlend mode="normal" in="SourceGraphic" in2="effect1_dropShadow_7_4855" result="shape"/>
</filter>
</defs>
</svg>
