<svg width="146" height="36" viewBox="0 0 146 36" fill="none" xmlns="http://www.w3.org/2000/svg">
<g filter="url(#filter0_d_75_33)">
<path d="M10.1992 6.53125H22.3398L22.4336 6.625V9.57812H13.1523V12.6719H22.4336V15.6719L22.3398 15.7656H13.1523V21.9062L13.0586 22H10.1992L10.1055 21.9062V6.625L10.1992 6.53125ZM22.4336 9.57812H25.4805L25.5742 9.67188V12.5781L25.4805 12.6719H22.4336V9.57812ZM28.5977 6.53125H40.7383L40.832 6.625V9.57812H31.5508V12.6719H40.832V15.7656H31.5508V21.9062L31.457 22H28.5977L28.5039 21.9062V6.625L28.5977 6.53125ZM40.832 9.57812H43.8789L43.9727 9.67188V12.5781L43.8789 12.6719H40.832V9.57812ZM40.832 15.7656H43.8789L43.9727 15.8594V21.9062L43.8789 22H40.9258L40.832 21.9062V15.7656ZM50.043 6.53125H59.1367L59.2305 6.625V9.57812H49.9492V6.625L50.043 6.53125ZM46.9961 9.57812H49.9492V18.8594H46.9961L46.9023 18.7656V9.67188L46.9961 9.57812ZM59.2305 9.57812H62.2773L62.3711 9.67188V18.7656L62.2773 18.8594H59.2305V9.57812ZM49.9492 18.8594H59.2305V21.9062L59.1367 22H50.043L49.9492 21.9062V18.8594ZM68.4414 6.53125H80.6758L80.7695 6.625V9.48438L80.6758 9.57812H68.3477V6.625L68.4414 6.53125ZM65.3945 9.57812H68.3477V12.6719H80.6758L80.7695 12.7656V15.6719L80.6758 15.7656H68.3477V21.9062L68.2539 22H65.3945L65.3008 21.9062V9.67188L65.3945 9.57812ZM83.793 6.53125H99.0742L99.168 6.625V9.48438L99.0742 9.57812H92.9336V18.8594H99.0742L99.168 18.9531V21.9062L99.0742 22H83.793L83.6992 21.9062V18.9531L83.793 18.8594H89.8398V9.57812H83.793L83.6992 9.48438V6.625L83.793 6.53125ZM102.191 6.53125H105.051L105.145 6.625V18.8594H117.473L117.566 18.9531V21.9062L117.473 22H102.191L102.098 21.9062V6.625L102.191 6.53125ZM123.637 6.53125H135.871L135.965 6.625V9.48438L135.871 9.57812H123.543V6.625L123.637 6.53125ZM120.59 9.57812H123.543V12.6719H135.871L135.965 12.7656V15.6719L135.871 15.7656H123.543V18.8594H120.59L120.496 18.7656V9.67188L120.59 9.57812ZM123.543 18.8594H135.871L135.965 18.9531V21.9062L135.871 22H123.637L123.543 21.9062V18.8594Z" fill="#DBFFD2"/>
</g>
<defs>
<filter id="filter0_d_75_33" x="0.105469" y="0.53125" width="145.859" height="35.4688" filterUnits="userSpaceOnUse" color-interpolation-filters="sRGB">
<feFlood flood-opacity="0" result="BackgroundImageFix"/>
<feColorMatrix in="SourceAlpha" type="matrix" values="0 0 0 0 0 0 0 0 0 0 0 0 0 0 0 0 0 0 127 0" result="hardAlpha"/>
<feOffset dy="4"/>
<feGaussianBlur stdDeviation="5"/>
<feComposite in2="hardAlpha" operator="out"/>
<feColorMatrix type="matrix" values="0 0 0 0 0.321569 0 0 0 0 1 0 0 0 0 0 0 0 0 1 0"/>
<feBlend mode="normal" in2="BackgroundImageFix" result="effect1_dropShadow_75_33"/>
<feBlend mode="normal" in="SourceGraphic" in2="effect1_dropShadow_75_33" result="shape"/>
</filter>
</defs>
</svg>
