<svg width="202" height="36" viewBox="0 0 202 36" fill="none" xmlns="http://www.w3.org/2000/svg">
<g filter="url(#filter0_d_75_34)">
<path d="M10.6016 6.53125H25.8828L25.9766 6.625V9.48438L25.8828 9.57812H19.7422V21.9062L19.6484 22H16.7422L16.6484 21.9062V9.57812H10.6016L10.5078 9.48438V6.625L10.6016 6.53125ZM32.0469 6.53125H41.1406L41.2344 6.625V9.57812H31.9531V6.625L32.0469 6.53125ZM29 9.57812H31.9531V18.8594H29L28.9062 18.7656V9.67188L29 9.57812ZM41.2344 9.57812H44.2812L44.375 9.67188V18.7656L44.2812 18.8594H41.2344V9.57812ZM31.9531 18.8594H41.2344V21.9062L41.1406 22H32.0469L31.9531 21.9062V18.8594ZM47.3984 6.53125H50.2578L50.3516 6.625V18.8594H47.3984L47.3047 18.7656V6.625L47.3984 6.53125ZM59.7266 6.53125H62.6797L62.7734 6.625V18.7656L62.6797 18.8594H59.6328V6.625L59.7266 6.53125ZM50.3516 18.8594H59.6328V21.9062L59.5391 22H50.4453L50.3516 21.9062V18.8594ZM65.7969 6.53125H77.9375L78.0312 6.625V9.57812H68.75V12.6719H78.0312V15.7656H68.75V21.9062L68.6562 22H65.7969L65.7031 21.9062V6.625L65.7969 6.53125ZM78.0312 9.57812H81.0781L81.1719 9.67188V12.5781L81.0781 12.6719H78.0312V9.57812ZM78.0312 15.7656H81.0781L81.1719 15.8594V21.9062L81.0781 22H78.125L78.0312 21.9062V15.7656ZM84.1953 6.53125H87.0547L87.1484 6.625V9.57812H90.1484L90.2422 9.67188V12.6719H87.1484V21.9062L87.0547 22H84.1953L84.1016 21.9062V6.625L84.1953 6.53125ZM96.5234 6.53125H99.4766L99.5703 6.625V21.9062L99.4766 22H96.5234L96.4297 21.9062V18.8594H93.4297L93.3359 18.7656V15.7656H96.4297V6.625L96.5234 6.53125ZM90.2422 12.6719H93.2422L93.3359 12.7656V15.7656H90.3359L90.2422 15.6719V12.6719ZM105.641 6.53125H114.734L114.828 6.625V9.57812H105.547V6.625L105.641 6.53125ZM102.594 9.57812H105.547V12.6719H114.828V9.57812H117.875L117.969 9.67188V21.9062L117.875 22H114.922L114.828 21.9062V15.7656H105.547V21.9062L105.453 22H102.594L102.5 21.9062V9.67188L102.594 9.57812ZM120.992 6.53125H123.852L123.945 6.625V9.57812H126.945L127.039 9.67188V12.6719H123.945V21.9062L123.852 22H120.992L120.898 21.9062V6.625L120.992 6.53125ZM133.32 6.53125H136.273L136.367 6.625V21.9062L136.273 22H133.32L133.227 21.9062V12.6719H130.133V9.67188L130.227 9.57812H133.227V6.625L133.32 6.53125ZM127.039 12.6719H130.133V15.6719L130.039 15.7656H127.133L127.039 15.6719V12.6719ZM142.438 6.53125H154.672L154.766 6.625V9.48438L154.672 9.57812H142.344V6.625L142.438 6.53125ZM139.391 9.57812H142.344V12.6719H154.672L154.766 12.7656V15.6719L154.672 15.7656H142.344V18.8594H139.391L139.297 18.7656V9.67188L139.391 9.57812ZM142.344 18.8594H154.672L154.766 18.9531V21.9062L154.672 22H142.438L142.344 21.9062V18.8594ZM157.789 6.53125H160.648L160.742 6.625V9.57812H163.742L163.836 9.67188V12.6719H160.742V21.9062L160.648 22H157.789L157.695 21.9062V6.625L157.789 6.53125ZM170.117 6.53125H173.07L173.164 6.625V21.9062L173.07 22H170.117L170.023 21.9062V18.8594H167.023L166.93 18.7656V15.7656H170.023V6.625L170.117 6.53125ZM163.836 12.6719H166.836L166.93 12.7656V15.7656H163.93L163.836 15.6719V12.6719ZM176.188 6.53125H191.469L191.562 6.625V9.48438L191.469 9.57812H185.328V21.9062L185.234 22H182.328L182.234 21.9062V9.57812H176.188L176.094 9.48438V6.625L176.188 6.53125Z" fill="#DBFFD2"/>
</g>
<defs>
<filter id="filter0_d_75_34" x="0.507812" y="0.53125" width="201.055" height="35.4688" filterUnits="userSpaceOnUse" color-interpolation-filters="sRGB">
<feFlood flood-opacity="0" result="BackgroundImageFix"/>
<feColorMatrix in="SourceAlpha" type="matrix" values="0 0 0 0 0 0 0 0 0 0 0 0 0 0 0 0 0 0 127 0" result="hardAlpha"/>
<feOffset dy="4"/>
<feGaussianBlur stdDeviation="5"/>
<feComposite in2="hardAlpha" operator="out"/>
<feColorMatrix type="matrix" values="0 0 0 0 0.321569 0 0 0 0 1 0 0 0 0 0 0 0 0 1 0"/>
<feBlend mode="normal" in2="BackgroundImageFix" result="effect1_dropShadow_75_34"/>
<feBlend mode="normal" in="SourceGraphic" in2="effect1_dropShadow_75_34" result="shape"/>
</filter>
</defs>
</svg>
